<svg xmlns="http://www.w3.org/2000/svg" width="1189" height="163" viewBox="0 0 1189 163">
  <g fill="none" fill-rule="evenodd">
    <g fill-rule="nonzero" transform="translate(8 3)">
      <path fill="#444" d="M97.6551658,91.9662829 L97.6551658,93.0648563 C97.6551658,94.1634296 97.0271583,95.262003 96.0851471,95.8897592 L95.1431358,96.5175154 L105.034254,102.167321 L105.034254,101.068748 C105.034254,99.9701745 105.662261,98.8716011 106.604273,98.2438449 L107.546284,97.7730278 L97.6551658,91.9662829 Z"/>
      <path fill="#FBC02D" d="M95.4571396,64.9727664 C95.4571396,63.8741931 94.8291321,62.7756197 93.8871208,62.1478636 L92.9451096,61.6770464 L71.5928547,49.2788615 L70.6508434,48.8080444 C70.1798378,48.4941663 69.5518303,48.3372272 69.0808247,48.3372272 C68.4528172,48.3372272 67.9818116,48.4941663 67.510806,48.8080444 L66.5687947,49.4358006 L45.2165398,61.6770464 L44.2745286,62.1478636 C43.3325173,62.7756197 42.7045098,63.717254 42.7045098,64.9727664 L42.7045098,91.6524048 C42.7045098,92.7509782 43.3325173,93.8495515 44.2745286,94.4773077 L45.2165398,94.9481249 L66.4117928,107.189371 L67.3538041,107.660188 C67.8248097,107.974066 68.4528172,108.131005 68.9238228,108.131005 C69.3948284,108.131005 70.0228359,107.974066 70.4938416,107.660188 L71.4358528,107.189371 L92.6311058,94.9481249 L93.5731171,94.3203687 C94.5151283,93.6926125 95.1431358,92.7509782 95.1431358,91.4954658 L95.1431358,64.9727664 L95.4571396,64.9727664 Z"/>
      <path fill="#444" d="M40.6634854,93.0648563 L40.6634854,91.9662829 L30.7723674,97.6160887 L31.7143786,98.0869059 C32.6563899,98.7146621 33.2843974,99.6562964 33.2843974,100.911809 L33.2843974,102.010382 L43.1755154,96.3605763 L42.2335042,95.7328201 C41.2914929,95.262003 40.6634854,94.1634296 40.6634854,93.0648563 Z"/>
      <path fill="#D32F2F" d="M135.963623,37.9792499 L135.021612,37.5084328 L124.659488,31.5447489 L123.874479,31.0739318 C123.403473,30.7600537 122.775466,30.6031146 122.30446,30.6031146 C121.676453,30.6031146 121.205447,30.7600537 120.734441,31.0739318 L119.949432,31.5447489 L109.430306,37.6653718 L108.645297,38.136189 C107.703286,38.7639452 107.075278,39.7055795 107.075278,40.9610919 L107.075278,54.9286673 C107.075278,56.0272406 107.703286,57.125814 108.645297,57.7535702 L109.587308,58.2243873 L119.949432,64.1880712 L120.734441,64.6588883 C121.205447,64.9727664 121.833454,65.1297055 122.30446,65.1297055 C122.775466,65.1297055 123.403473,64.9727664 123.874479,64.6588883 L124.659488,64.1880712 L135.178614,58.0674483 L135.963623,57.5966311 C136.905634,56.9688749 137.533642,56.0272406 137.533642,54.7717282 L137.533642,40.8041528 C137.533642,39.5486404 136.905634,38.6070061 135.963623,37.9792499 Z"/>
      <path fill="#444" d="M70.6508434,36.2529204 C70.1798378,36.5667985 69.5518303,36.7237376 69.0808247,36.7237376 C68.6098191,36.7237376 67.9818116,36.5667985 67.510806,36.2529204 L66.5687947,35.6251642 L66.5687947,47.0817148 L67.510806,46.4539586 C67.9818116,46.1400805 68.6098191,45.9831415 69.0808247,45.9831415 C69.5518303,45.9831415 70.1798378,46.1400805 70.6508434,46.4539586 L71.5928547,46.9247758 L71.5928547,35.6251642 L70.6508434,36.2529204 Z"/>
      <path fill="#F44336" d="M82.7399878,130.102472 L81.9549784,129.631655 L71.5928547,123.667971 L70.6508434,123.040215 C70.1798378,122.726337 69.5518303,122.569398 69.0808247,122.569398 C68.4528172,122.569398 67.9818116,122.726337 67.510806,123.040215 L66.5687947,123.511032 L56.206671,129.474716 L55.4216616,129.945533 C54.4796504,130.573289 53.8516429,131.514923 53.8516429,132.770436 L53.8516429,146.738011 C53.8516429,147.836585 54.4796504,148.935158 55.4216616,149.562914 L56.206671,150.033731 L66.5687947,155.997415 L67.510806,156.468232 C67.9818116,156.78211 68.6098191,156.939049 69.0808247,156.939049 C69.5518303,156.939049 70.1798378,156.78211 70.6508434,156.468232 L71.5928547,155.997415 L81.9549784,150.033731 L82.7399878,149.562914 C83.681999,148.935158 84.3100065,147.993524 84.3100065,146.738011 L84.3100065,132.770436 C84.4670084,131.671862 83.8390009,130.573289 82.7399878,130.102472 Z"/>
      <path fill="#E53935" d="M135.963623,99.3424183 L135.178614,98.8716011 L124.81649,92.9079172 L124.031481,92.4371001 C123.560475,92.123222 122.932468,91.9662829 122.461462,91.9662829 C121.833454,91.9662829 121.362449,92.123222 120.891443,92.4371001 L120.106434,92.9079172 L109.587308,98.8716011 L108.645297,99.3424183 C107.703286,99.9701745 107.075278,100.911809 107.075278,102.167321 L107.075278,116.134897 C107.075278,117.23347 107.703286,118.332043 108.645297,118.959799 L109.430306,119.430617 L119.949432,125.551239 L120.734441,126.022057 C121.205447,126.335935 121.833454,126.492874 122.30446,126.492874 C122.775466,126.492874 123.403473,126.335935 123.874479,126.022057 L124.659488,125.551239 L135.021612,119.587556 L135.963623,119.116738 C136.905634,118.488982 137.533642,117.547348 137.533642,116.291836 L137.533642,102.32426 C137.533642,101.068748 136.905634,99.9701745 135.963623,99.3424183 Z"/>
      <path fill="#EF5350" d="M29.6733542,99.3424183 L28.731343,98.8716011 L18.3692193,92.9079172 L17.7412118,92.4371001 C17.2702062,92.123222 16.6421987,91.9662829 16.1711931,91.9662829 C15.7001874,91.9662829 15.0721799,92.123222 14.6011743,92.4371001 L13.6591631,92.9079172 L3.14003749,98.8716011 L2.35502811,99.3424183 C1.41301687,99.9701745 0.785009372,100.911809 0.785009372,102.167321 L0.785009372,116.134897 C0.785009372,117.23347 1.41301687,118.332043 2.35502811,118.959799 L3.29703936,119.430617 L13.5021612,125.3943 L14.4441724,125.865118 C14.9151781,126.178996 15.5431856,126.335935 16.0141912,126.335935 C16.6421987,126.335935 17.1132043,126.178996 17.5842099,125.865118 L18.2122174,125.3943 L28.731343,119.273678 L29.5163524,118.80286 C30.4583636,118.175104 31.0863711,117.23347 31.0863711,115.977957 L31.0863711,102.010382 C31.243373,101.068748 30.6153655,99.9701745 29.6733542,99.3424183 Z"/>
      <path fill="#C62828" d="M55.4216616,26.8365774 L56.206671,27.3073946 L66.5687947,33.2710785 L67.510806,33.8988347 C67.9818116,34.2127128 68.6098191,34.3696518 69.0808247,34.3696518 C69.5518303,34.3696518 70.1798378,34.2127128 70.6508434,33.8988347 L71.5928547,33.4280175 L81.9549784,27.4643336 L82.7399878,26.9935165 C83.681999,26.3657603 84.3100065,25.424126 84.3100065,24.1686136 L84.3100065,10.2010382 C84.3100065,9.10246486 83.681999,8.00389152 82.7399878,7.37613532 L81.9549784,6.90531817 L71.5928547,0.941634296 L70.6508434,0.470817148 C70.1798378,0.156939049 69.5518303,0 69.0808247,0 C68.4528172,0 67.9818116,0.156939049 67.510806,0.470817148 L66.5687947,1.09857335 L56.3636729,7.06225722 L55.5786635,7.53307437 C54.6366523,8.16083057 54.0086448,9.10246486 54.0086448,10.3579773 L54.0086448,24.3255527 C53.8516429,25.2671869 54.4796504,26.3657603 55.4216616,26.8365774 Z"/>
      <path fill="#B71C1C" d="M2.19802624,57.4396921 L2.98303561,57.9105092 L13.5021612,64.0311321 L14.2871706,64.5019493 C14.7581762,64.8158274 15.3861837,64.9727664 15.8571893,64.9727664 C16.4851968,64.9727664 16.9562024,64.8158274 17.427208,64.5019493 L18.2122174,64.0311321 L28.5743411,58.0674483 L29.5163524,57.5966311 C30.4583636,56.9688749 31.0863711,56.0272406 31.0863711,54.7717282 L31.0863711,40.8041528 C31.0863711,39.7055795 30.4583636,38.6070061 29.5163524,37.9792499 L28.731343,37.5084328 L18.2122174,31.3878099 L17.427208,30.9169927 C16.9562024,30.6031146 16.3281949,30.4461756 15.8571893,30.4461756 C15.2291818,30.4461756 14.7581762,30.6031146 14.2871706,30.9169927 L13.5021612,31.3878099 L3.14003749,37.5084328 L2.19802624,37.9792499 C1.25601499,38.6070061 0.628007497,39.5486404 0.628007497,40.8041528 L0.628007497,54.7717282 C0.628007497,55.8703016 1.25601499,56.9688749 2.19802624,57.4396921 Z"/>
    </g>
    <text font-family="ProductSans-Regular, Product Sans" font-size="144">
      <tspan x="196" y="141" fill="#37474F">Amal</tspan> <tspan x="517.696" y="141" fill="#C62828">Fi</tspan>
    </text>
    <text fill="#37474F" font-family="ProductSans-Regular, Product Sans" font-size="144">
      <tspan x="647.248" y="139">Wireless</tspan>
    </text>
  </g>
</svg>
